<svg xmlns="http://www.w3.org/2000/svg" width="800" height="500">
<text x="300" y="30" font-size="18" fill="#333" font-weight="bold">函数曲线（Rust 生成）</text><line x1="40" y1="40" x2="40" y2="460" stroke="#ddd" stroke-width="1"/><text x="30" y="475" font-size="12" fill="#999">-12.6</text><line x1="760" y1="40" x2="760" y2="460" stroke="#ddd" stroke-width="1"/><text x="750" y="475" font-size="12" fill="#999">12.6</text><line x1="40" y1="336.47058823529414" x2="760" y2="336.47058823529414" stroke="#bbb" stroke-width="1"/><line x1="40" y1="460" x2="760" y2="460" stroke="#333" stroke-width="2"/>
           <line x1="40" y1="40" x2="40" y2="460" stroke="#333" stroke-width="2"/><polyline points="40.0,336.5 41.8,337.7 43.6,339.0 45.4,340.2 47.2,341.5 49.0,342.7 50.8,343.9 52.6,345.1 54.4,346.3 56.2,347.5 58.0,348.6 59.8,349.7 61.6,350.8 63.4,351.8 65.2,352.8 67.0,353.7 68.8,354.5 70.6,355.3 72.4,356.0 74.2,356.7 76.0,357.2 77.8,357.7 79.6,358.2 81.4,358.5 83.2,358.8 85.0,358.9 86.8,359.0 88.6,359.0 90.4,358.9 92.2,358.7 94.0,358.5 95.8,358.1 97.6,357.6 99.4,357.1 101.2,356.5 103.0,355.8 104.8,354.9 106.6,354.1 108.4,353.1 110.2,352.0 112.0,350.9 113.8,349.7 115.6,348.5 117.4,347.1 119.2,345.7 121.0,344.3 122.8,342.8 124.6,341.3 126.4,339.7 128.2,338.1 130.0,336.5 131.8,334.8 133.6,333.1 135.4,331.5 137.2,329.8 139.0,328.1 140.8,326.4 142.6,324.8 144.4,323.1 146.2,321.5 148.0,320.0 149.8,318.4 151.6,317.0 153.4,315.5 155.2,314.2 157.0,312.9 158.8,311.7 160.6,310.6 162.4,309.5 164.2,308.6 166.0,307.7 167.8,306.9 169.6,306.3 171.4,305.8 173.2,305.3 175.0,305.0 176.8,304.8 178.6,304.8 180.4,304.8 182.2,305.0 184.0,305.3 185.8,305.7 187.6,306.3 189.4,307.0 191.2,307.9 193.0,308.8 194.8,309.9 196.6,311.1 198.4,312.4 200.2,313.9 202.0,315.5 203.8,317.1 205.6,318.9 207.4,320.8 209.2,322.8 211.0,324.9 212.8,327.1 214.6,329.3 216.4,331.6 218.2,334.0 220.0,336.5 221.8,339.0 223.6,341.5 225.4,344.1 227.2,346.7 229.0,349.3 230.8,351.9 232.6,354.5 234.4,357.1 236.2,359.6 238.0,362.2 239.8,364.6 241.6,367.1 243.4,369.4 245.2,371.7 247.0,373.9 248.8,376.0 250.6,378.0 252.4,379.9 254.2,381.6 256.0,383.2 257.8,384.7 259.6,386.0 261.4,387.1 263.2,388.1 265.0,388.9 266.8,389.5 268.6,389.9 270.4,390.1 272.2,390.1 274.0,389.9 275.8,389.5 277.6,388.8 279.4,387.9 281.2,386.8 283.0,385.4 284.8,383.8 286.6,382.0 288.4,379.9 290.2,377.6 292.0,375.0 293.8,372.2 295.6,369.1 297.4,365.8 299.2,362.3 301.0,358.6 302.8,354.6 304.6,350.4 306.4,345.9 308.2,341.3 310.0,336.5 311.8,331.4 313.6,326.2 315.4,320.8 317.2,315.2 319.0,309.5 320.8,303.6 322.6,297.5 324.4,291.4 326.2,285.1 328.0,278.7 329.8,272.2 331.6,265.6 333.4,259.0 335.2,252.3 337.0,245.6 338.8,238.8 340.6,232.1 342.4,225.3 344.2,218.5 346.0,211.8 347.8,205.1 349.6,198.5 351.4,192.0 353.2,185.5 355.0,179.2 356.8,173.0 358.6,166.9 360.4,160.9 362.2,155.1 364.0,149.5 365.8,144.1 367.6,138.8 369.4,133.8 371.2,129.0 373.0,124.4 374.8,120.1 376.6,116.0 378.4,112.2 380.2,108.6 382.0,105.3 383.8,102.4 385.6,99.7 387.4,97.3 389.2,95.2 391.0,93.5 392.8,92.0 394.6,90.9 396.4,90.1 398.2,89.6 400.0,89.4 401.8,89.6 403.6,90.1 405.4,90.9 407.2,92.0 409.0,93.5 410.8,95.2 412.6,97.3 414.4,99.7 416.2,102.4 418.0,105.3 419.8,108.6 421.6,112.2 423.4,116.0 425.2,120.1 427.0,124.4 428.8,129.0 430.6,133.8 432.4,138.8 434.2,144.1 436.0,149.5 437.8,155.1 439.6,160.9 441.4,166.9 443.2,173.0 445.0,179.2 446.8,185.5 448.6,192.0 450.4,198.5 452.2,205.1 454.0,211.8 455.8,218.5 457.6,225.3 459.4,232.1 461.2,238.8 463.0,245.6 464.8,252.3 466.6,259.0 468.4,265.6 470.2,272.2 472.0,278.7 473.8,285.1 475.6,291.4 477.4,297.5 479.2,303.6 481.0,309.5 482.8,315.2 484.6,320.8 486.4,326.2 488.2,331.4 490.0,336.5 491.8,341.3 493.6,345.9 495.4,350.4 497.2,354.6 499.0,358.6 500.8,362.3 502.6,365.8 504.4,369.1 506.2,372.2 508.0,375.0 509.8,377.6 511.6,379.9 513.4,382.0 515.2,383.8 517.0,385.4 518.8,386.8 520.6,387.9 522.4,388.8 524.2,389.5 526.0,389.9 527.8,390.1 529.6,390.1 531.4,389.9 533.2,389.5 535.0,388.9 536.8,388.1 538.6,387.1 540.4,386.0 542.2,384.7 544.0,383.2 545.8,381.6 547.6,379.9 549.4,378.0 551.2,376.0 553.0,373.9 554.8,371.7 556.6,369.4 558.4,367.1 560.2,364.6 562.0,362.2 563.8,359.6 565.6,357.1 567.4,354.5 569.2,351.9 571.0,349.3 572.8,346.7 574.6,344.1 576.4,341.5 578.2,339.0 580.0,336.5 581.8,334.0 583.6,331.6 585.4,329.3 587.2,327.1 589.0,324.9 590.8,322.8 592.6,320.8 594.4,318.9 596.2,317.1 598.0,315.5 599.8,313.9 601.6,312.4 603.4,311.1 605.2,309.9 607.0,308.8 608.8,307.9 610.6,307.0 612.4,306.3 614.2,305.7 616.0,305.3 617.8,305.0 619.6,304.8 621.4,304.8 623.2,304.8 625.0,305.0 626.8,305.3 628.6,305.8 630.4,306.3 632.2,306.9 634.0,307.7 635.8,308.6 637.6,309.5 639.4,310.6 641.2,311.7 643.0,312.9 644.8,314.2 646.6,315.5 648.4,317.0 650.2,318.4 652.0,320.0 653.8,321.5 655.6,323.1 657.4,324.8 659.2,326.4 661.0,328.1 662.8,329.8 664.6,331.5 666.4,333.1 668.2,334.8 670.0,336.5 671.8,338.1 673.6,339.7 675.4,341.3 677.2,342.8 679.0,344.3 680.8,345.7 682.6,347.1 684.4,348.5 686.2,349.7 688.0,350.9 689.8,352.0 691.6,353.1 693.4,354.1 695.2,354.9 697.0,355.8 698.8,356.5 700.6,357.1 702.4,357.6 704.2,358.1 706.0,358.5 707.8,358.7 709.6,358.9 711.4,359.0 713.2,359.0 715.0,358.9 716.8,358.8 718.6,358.5 720.4,358.2 722.2,357.7 724.0,357.2 725.8,356.7 727.6,356.0 729.4,355.3 731.2,354.5 733.0,353.7 734.8,352.8 736.6,351.8 738.4,350.8 740.2,349.7 742.0,348.6 743.8,347.5 745.6,346.3 747.4,345.1 749.2,343.9 751.0,342.7 752.8,341.5 754.6,340.2 756.4,339.0 758.2,337.7 760.0,336.5 " fill="none" stroke="#e74c3c" stroke-width="2.5"/>
</svg>